<?xml version="1.0" standalone="no"?>
<!DOCTYPE svg PUBLIC "-//W3C//DTD SVG 20010904//EN"
 "http://www.w3.org/TR/2001/REC-SVG-20010904/DTD/svg10.dtd">
<svg version="1.0" xmlns="http://www.w3.org/2000/svg"
 width="640.000000pt" height="640.000000pt" viewBox="0 0 640.000000 640.000000"
 preserveAspectRatio="xMidYMid meet">

<g transform="translate(0.000000,640.000000) scale(0.100000,-0.100000)"
fill="#000000" stroke="none">
<path d="M0 5733 l0 -668 211 3 c238 4 274 0 290 -30 20 -36 15 -287 -6 -342
l-17 -45 26 -31 c14 -18 26 -41 26 -53 0 -42 10 -44 173 -49 l157 -5 0 229 c0
215 -1 230 -21 257 -17 24 -22 52 -31 197 -12 205 -4 533 16 627 18 83 52 144
88 163 62 32 182 37 973 42 1123 7 1203 7 1270 2 33 -2 137 1 230 8 94 6 319
14 500 18 182 4 325 9 318 11 -7 3 -9 13 -3 32 4 16 11 90 15 165 l7 136
-2111 0 -2111 0 0 -667z"/>
<path d="M5775 6335 c-3 -35 -4 -69 -1 -74 3 -5 8 -56 10 -113 2 -56 8 -114
13 -128 10 -24 10 -23 16 10 4 19 9 110 12 203 l6 167 -25 0 c-22 0 -24 -5
-31 -65z"/>
<path d="M6357 6082 c-19 -21 -35 -93 -36 -167 -1 -27 -7 -169 -14 -315 -12
-257 -10 -300 12 -385 12 -46 1 -63 -57 -91 -28 -13 -70 -18 -172 -21 -154 -5
-183 -9 -177 -26 3 -9 65 -12 245 -12 l242 0 0 518 c0 546 0 547 -43 499z"/>
<path d="M5017 5902 c-15 -16 -32 -44 -37 -63 -13 -43 -12 -168 1 -334 11
-136 13 -731 2 -748 -3 -5 -7 -55 -9 -110 -4 -104 -5 -115 -25 -247 -6 -41 -9
-89 -7 -106 2 -17 -1 -35 -7 -41 -7 -6 -8 -46 -3 -119 4 -60 5 -136 1 -169 -4
-33 -7 -67 -6 -75 1 -8 5 -87 8 -175 3 -88 9 -185 15 -215 20 -119 32 -296 24
-355 -4 -33 -8 -105 -9 -160 0 -55 -3 -104 -6 -110 -12 -21 2 -572 18 -685 4
-25 5 -51 4 -57 -1 -7 3 -13 9 -13 6 0 9 -3 7 -7 -6 -9 9 -366 19 -481 7 -78
2 -113 -46 -322 -27 -115 -29 -137 -25 -267 5 -122 3 -149 -13 -190 -11 -26
-27 -84 -37 -128 -10 -44 -24 -85 -31 -91 -17 -14 -19 -28 -3 -18 7 4 10 1 7
-7 -5 -14 -27 -15 -141 -7 -31 3 -60 8 -64 11 -3 4 -22 7 -42 8 -20 0 -45 5
-56 10 -14 6 -2 7 38 3 39 -4 57 -2 57 6 0 6 -5 8 -12 4 -7 -5 -9 -2 -5 9 4
11 1 15 -14 12 -10 -2 -19 1 -19 7 0 6 -13 8 -29 6 -17 -2 -28 -1 -25 4 6 9
-40 22 -58 15 -7 -2 -21 0 -30 4 -13 7 -20 4 -28 -11 -9 -17 -8 -20 7 -20 10
0 25 -5 33 -11 11 -8 3 -9 -30 -3 -25 4 -54 8 -65 9 -61 7 -214 48 -209 57 3
4 -18 8 -46 8 -28 0 -59 4 -69 9 -24 13 -59 3 -66 -19 -4 -14 -19 -19 -58 -22
-76 -6 -85 2 -31 27 45 21 47 23 27 34 -12 6 -29 11 -37 11 -9 0 -16 4 -16 9
0 4 11 7 25 6 14 -2 33 -1 44 2 17 4 18 9 9 34 -10 29 -59 71 -88 76 -8 1 -47
4 -85 7 -74 5 -118 17 -130 35 -3 6 -15 11 -26 11 -22 0 -52 24 -42 34 4 3 -6
6 -21 6 -15 0 -39 6 -54 14 -23 11 -383 42 -417 35 -30 -5 -66 2 -59 13 4 7 3
8 -4 4 -6 -4 -39 -2 -74 4 -35 6 -94 15 -132 20 -67 10 -101 24 -91 40 8 13
-63 31 -210 51 -109 15 -165 30 -225 57 -30 14 -65 25 -77 24 -13 -1 -23 4
-23 11 -1 16 -39 -34 -40 -50 0 -7 -8 -14 -17 -14 -24 -2 -32 -3 -71 -13 -27
-6 -36 -4 -48 11 -9 10 -12 11 -8 3 5 -12 4 -12 -6 -3 -10 9 -9 22 5 63 9 28
14 54 11 57 -3 4 -6 0 -6 -8 0 -11 -2 -11 -10 1 -6 10 -10 11 -10 3 0 -7 -8
-13 -19 -13 -19 0 -191 -41 -271 -64 -25 -8 -72 -19 -105 -26 -95 -20 -206
-50 -227 -61 -10 -6 -23 -21 -28 -35 -11 -28 -29 -32 -31 -6 -3 47 -7 77 -9
82 -1 3 -4 21 -7 40 -2 19 -9 42 -14 52 -6 10 -7 23 -4 28 3 6 2 10 -3 10 -5
0 -26 34 -47 75 -21 42 -43 79 -48 82 -6 3 -7 1 -3 -5 4 -7 3 -12 -3 -12 -5 0
-14 8 -20 17 -5 10 -13 15 -17 11 -7 -7 11 -356 23 -430 5 -35 3 -38 -20 -38
-14 0 -28 7 -31 16 -3 9 -6 109 -6 223 0 220 -9 377 -20 347 -6 -17 -8 -17
-22 -3 -8 9 -19 12 -24 7 -5 -4 -31 3 -59 17 -27 13 -72 27 -100 29 -51 5
-234 -16 -269 -31 -15 -7 -18 -5 -14 7 5 11 1 14 -18 10 -13 -2 -24 -8 -24
-12 0 -4 -33 -11 -72 -14 -48 -5 -87 -15 -113 -31 -90 -52 -93 -61 -110 -385
-3 -63 -10 -137 -15 -165 -4 -27 -13 -86 -20 -130 -6 -44 -15 -104 -21 -133
-10 -47 -13 -52 -38 -52 -15 0 -31 4 -36 8 -15 13 -125 55 -130 50 -3 -3 41
-28 97 -57 86 -43 117 -54 183 -62 125 -14 207 -28 219 -38 6 -5 35 -11 64
-13 40 -4 52 -2 52 9 0 16 34 10 59 -11 16 -13 430 -16 438 -3 2 4 -12 7 -32
7 -30 0 -34 2 -23 13 10 10 31 11 88 6 193 -20 237 -22 244 -10 4 6 16 11 27
11 11 0 22 7 25 15 4 8 18 15 32 15 37 0 24 6 -28 13 -32 4 -39 3 -25 -3 18
-9 18 -9 -4 -7 -37 3 -39 27 -2 27 30 0 38 16 16 32 -6 5 -6 8 2 8 6 0 15 -5
18 -10 3 -6 17 -10 31 -10 17 0 23 -4 18 -12 -5 -8 -2 -9 9 -5 10 4 17 2 17
-4 0 -7 10 -9 24 -5 14 3 28 1 32 -5 4 -7 21 -9 42 -5 20 3 42 1 49 -6 9 -7
13 -7 13 1 0 6 12 9 28 6 15 -2 76 -7 136 -9 72 -4 112 -10 118 -18 6 -10 8
-10 8 -1 0 7 12 12 27 12 16 0 60 2 100 5 41 3 75 1 78 -4 4 -6 16 -10 29 -10
12 0 26 -3 30 -7 4 -4 24 -6 45 -4 25 1 44 -3 55 -14 9 -9 16 -11 16 -5 0 13
138 3 156 -11 6 -5 51 -6 100 -2 49 3 191 5 315 3 l226 -2 8 23 c6 20 8 21 12
6 3 -11 14 -17 31 -17 21 0 24 2 12 10 -12 8 -9 10 13 10 16 0 26 -4 23 -9 -3
-4 15 -11 41 -15 25 -3 60 -15 77 -25 32 -20 140 -32 163 -18 13 8 43 -1 43
-14 0 -4 -13 -6 -30 -4 -34 4 -38 -6 -13 -26 14 -12 16 -12 11 1 -4 12 5 15
49 16 35 0 58 5 63 14 5 8 21 15 37 17 15 2 54 10 86 18 32 8 70 15 83 15 13
0 24 5 24 10 0 6 7 10 15 10 8 0 15 5 15 10 0 6 -18 10 -41 10 -28 0 -38 -4
-33 -12 5 -7 3 -8 -7 -2 -8 5 -22 7 -33 5 -11 -1 -16 2 -12 8 4 6 20 11 35 11
15 0 32 5 38 11 7 7 28 8 57 4 45 -7 46 -8 31 -26 -16 -16 -16 -17 2 -14 42
10 133 12 200 6 39 -4 69 -3 67 1 -3 4 -13 8 -22 8 -9 0 -24 5 -32 10 -11 7
-7 9 16 6 17 -2 36 -6 41 -9 6 -4 43 -8 81 -10 41 -2 79 -10 89 -18 11 -9 14
-10 9 -1 -4 6 -3 12 2 12 18 0 72 -22 72 -30 0 -11 -27 -20 -42 -15 -7 2 -40
6 -73 9 -33 2 -68 8 -78 12 -10 4 -28 2 -40 -4 -12 -6 -31 -13 -42 -15 -16 -4
-14 -5 6 -6 14 0 54 -12 89 -26 35 -14 72 -25 81 -25 10 0 25 -7 33 -16 15
-14 16 -13 16 10 0 14 -4 26 -10 26 -5 0 -10 -5 -10 -11 0 -5 -5 -7 -11 -3
-16 9 10 24 43 24 17 0 27 -5 25 -13 -1 -8 11 -12 37 -11 24 1 33 -2 25 -7 -8
-5 -9 -9 -3 -9 5 0 14 4 20 10 6 6 23 6 49 -2 22 -6 43 -11 48 -10 4 1 7 -5 7
-14 0 -8 -4 -12 -10 -9 -5 3 -7 0 -4 -8 3 -8 -2 -17 -11 -21 -9 -3 -13 -2 -10
4 3 6 -1 10 -10 10 -9 0 -14 3 -12 8 7 11 -52 12 -105 2 -26 -5 -58 -6 -70 -2
-13 5 -32 6 -42 4 -18 -4 -18 -5 4 -17 21 -11 14 -13 -58 -13 -45 0 -82 4 -82
9 0 5 -8 8 -17 7 -27 -3 -137 13 -148 22 -21 17 -51 15 -67 -3 -12 -14 -23
-17 -40 -11 -29 10 -148 11 -148 2 0 -9 21 -22 38 -24 33 -5 21 -14 -19 -14
l-44 -1 35 -29 c24 -22 29 -30 17 -30 -9 0 -17 -4 -17 -10 0 -13 12 -13 46 0
22 9 29 7 43 -9 9 -10 25 -21 36 -23 18 -4 17 -6 -6 -16 -28 -11 -97 2 -111
22 -4 6 -12 5 -22 -3 -9 -8 -31 -15 -49 -17 -17 -2 -42 -6 -54 -9 -18 -4 -23
1 -29 28 -4 17 -7 36 -6 40 1 4 -15 6 -35 3 -213 -27 -256 -41 -311 -95 -17
-18 -32 -34 -32 -36 0 -1 26 -6 58 -9 31 -4 72 -10 91 -13 59 -10 9 -24 -110
-30 -60 -3 -112 -10 -115 -15 -6 -10 -20 -8 136 -23 41 -4 89 -15 105 -25 23
-13 55 -18 130 -19 155 -1 388 -22 465 -41 25 -6 57 -14 73 -17 15 -3 27 -9
27 -13 0 -11 -90 -30 -140 -30 -21 0 -71 -7 -110 -15 -71 -15 -207 -15 -264 0
l-29 8 43 22 43 22 -84 5 c-105 7 -327 3 -356 -6 -12 -4 -96 -11 -186 -15
-163 -7 -203 -15 -176 -32 8 -5 31 -9 52 -9 23 0 36 -4 32 -10 -4 -7 567 -10
1704 -10 l1711 0 0 315 0 315 -27 6 c-33 7 -365 97 -588 160 -88 25 -211 59
-273 75 -62 16 -132 37 -155 48 -36 16 -124 46 -165 57 -8 2 -2 15 19 35 29
29 32 29 50 13 14 -13 43 -18 126 -21 60 -2 116 -6 126 -8 10 -2 14 1 10 8 -4
7 2 8 18 3 13 -4 32 -8 42 -7 9 0 15 -4 12 -8 -2 -5 14 -11 36 -15 22 -4 51
-13 64 -22 13 -9 33 -13 43 -10 11 4 32 1 48 -5 36 -15 39 -16 94 -18 30 -1
40 -4 31 -10 -11 -7 -8 -11 10 -17 13 -4 30 -7 37 -6 6 2 12 -2 12 -8 0 -5 5
-10 10 -10 6 0 30 -9 52 -20 23 -11 56 -20 74 -20 41 0 83 -16 111 -42 17 -15
32 -19 66 -17 26 2 43 0 39 -5 -3 -5 2 -7 11 -3 9 3 17 2 19 -2 2 -5 13 -5 26
0 l22 8 0 893 0 893 -59 22 c-74 29 -96 29 -126 -2 -30 -29 -29 6 -27 -530 1
-236 -2 -461 -6 -500 -6 -61 -10 -70 -28 -73 -12 -2 -39 6 -59 17 l-38 20 -19
-22 c-13 -15 -21 -18 -24 -9 -3 6 -12 12 -20 12 -8 0 -14 4 -14 9 0 5 -16 15
-34 21 l-35 11 1 72 c0 40 7 89 15 110 14 34 14 43 0 90 -11 37 -17 118 -21
282 -3 127 -14 364 -23 527 -9 164 -13 301 -9 305 4 4 43 6 86 4 130 -4 120
-22 120 209 0 187 1 200 19 210 11 5 83 10 160 10 l141 0 0 705 0 705 -32 0
c-18 0 -64 -11 -103 -24 -88 -30 -120 -64 -130 -137 -4 -30 -11 -61 -16 -70
-4 -9 -11 -74 -15 -145 -4 -71 -11 -140 -16 -153 -5 -15 -5 -28 3 -37 15 -18
-7 -48 -64 -84 -72 -46 -103 -78 -116 -120 -6 -22 -16 -40 -21 -40 -6 0 -10
-17 -11 -37 -1 -73 -17 -1 -38 173 -27 216 -27 439 -1 730 19 213 25 254 39
254 3 0 7 44 7 98 1 53 11 215 23 358 11 144 21 273 21 288 0 40 -40 52 -245
71 -99 9 -232 23 -295 29 -63 7 -167 14 -230 15 -115 2 -116 2 -143 -27z
m1053 -4432 c0 -5 -4 -10 -10 -10 -5 0 -10 5 -10 10 0 6 5 10 10 10 6 0 10 -4
10 -10z m-4049 -313 c-12 -12 -45 -1 -37 12 3 5 15 7 27 4 13 -4 17 -9 10 -16z
m98 -38 c-12 -8 -12 -11 1 -19 11 -8 -1 -10 -45 -10 -117 0 -142 -12 -63 -30
29 -7 60 -16 68 -20 46 -22 128 -41 192 -46 77 -6 92 -10 83 -25 -4 -5 4 -9
17 -9 13 0 30 -5 38 -10 12 -8 10 -10 -8 -10 -13 0 -31 -4 -40 -8 -20 -10
-105 6 -97 18 8 13 -4 17 -80 25 -38 3 -92 11 -119 16 -27 5 -68 9 -92 9 -24
0 -44 4 -44 9 0 5 10 34 21 64 20 52 23 55 46 46 39 -15 86 -12 80 5 -7 19 13
26 37 14 15 -8 16 -12 5 -19z m196 -29 c3 -5 -3 -10 -14 -10 -12 0 -21 5 -21
10 0 6 6 10 14 10 8 0 18 -4 21 -10z m123 -18 c2 -7 -5 -12 -17 -12 -14 0 -19
5 -14 15 6 17 25 15 31 -3z m-1128 -29 c0 -20 -17 -50 -24 -43 -2 3 -2 17 1
33 6 30 23 37 23 10z m1290 -13 c13 -9 13 -10 0 -9 -8 0 -24 4 -35 9 l-20 9
20 0 c11 0 27 -4 35 -9z m890 -36 c0 -2 -7 -4 -15 -4 -8 0 -15 4 -15 10 0 5 7
7 15 4 8 -4 15 -8 15 -10z m-592 -16 c28 -6 52 -14 52 -19 0 -13 -33 -20 -44
-9 -5 5 -18 10 -28 10 -36 0 -118 22 -118 32 0 11 43 7 138 -14z m2 -38 c0 -5
-8 -10 -17 -10 -15 0 -16 2 -3 10 19 12 20 12 20 0z m87 4 c-3 -3 -12 -4 -19
-1 -8 3 -5 6 6 6 11 1 17 -2 13 -5z m80 -20 c-3 -3 -12 -4 -19 -1 -8 3 -5 6 6
6 11 1 17 -2 13 -5z m-727 -20 c0 -2 -7 -4 -15 -4 -8 0 -15 4 -15 10 0 5 7 7
15 4 8 -4 15 -8 15 -10z m75 6 c16 -7 12 -9 -18 -9 -23 -1 -36 3 -32 9 7 12
23 12 50 0z m481 -21 c4 -8 0 -8 -15 0 -11 7 -21 8 -21 3 0 -4 -16 -6 -35 -4
-19 2 -33 8 -30 12 3 5 14 6 24 3 10 -3 22 0 25 6 8 12 40 0 52 -20z m264 21
c12 -8 9 -10 -12 -10 -15 0 -30 5 -33 10 -8 13 25 13 45 0z m57 -6 c-3 -3 -12
-4 -19 -1 -8 3 -5 6 6 6 11 1 17 -2 13 -5z m-647 -24 c0 -5 -5 -10 -11 -10 -5
0 -7 5 -4 10 3 6 8 10 11 10 2 0 4 -4 4 -10z m388 3 c-10 -2 -26 -2 -35 0 -10
3 -2 5 17 5 19 0 27 -2 18 -5z m81 -7 c9 -11 6 -12 -15 -8 -19 3 -22 7 -12 13
16 11 14 11 27 -5z m317 -1 c29 -15 17 -20 -23 -9 -13 4 -20 10 -17 15 7 12 7
12 40 -6z m2998 -11 c7 -19 2 -18 -19 6 -16 17 -16 20 -3 15 9 -4 19 -13 22
-21z m-5137 -28 c-9 -26 -27 -15 -27 16 1 31 1 32 15 13 9 -10 14 -24 12 -29z
m1218 34 c-8 -12 -65 -13 -65 -2 0 5 16 9 35 10 21 1 33 -3 30 -8z m72 4 c-3
-3 -12 -4 -19 -1 -8 3 -5 6 6 6 11 1 17 -2 13 -5z m1029 -11 c-4 -9 -1 -20 6
-25 9 -5 7 -8 -8 -8 -30 0 -35 9 -16 30 22 23 26 24 18 3z m-1081 -23 c13 -6
15 -9 5 -9 -8 0 -22 4 -30 9 -18 12 -2 12 25 0z m1288 3 c3 -5 -10 -16 -29
-25 -27 -14 -32 -14 -27 -3 3 8 11 15 19 15 8 0 14 5 14 10 0 12 17 13 23 3z
m-1238 -13 c3 -6 -1 -7 -9 -4 -18 7 -21 14 -7 14 6 0 13 -4 16 -10z m95 -4 c0
-2 -9 -6 -20 -9 -11 -3 -20 -1 -20 4 0 5 9 9 20 9 11 0 20 -2 20 -4z m75 -6
c-3 -5 -17 -10 -31 -10 -13 0 -24 5 -24 10 0 6 14 10 31 10 17 0 28 -4 24 -10z
m353 -11 c2 -5 11 -9 20 -9 15 0 15 2 2 10 -12 8 -10 10 8 10 13 0 21 -4 18
-9 -6 -8 37 -12 167 -14 31 -1 57 -4 57 -8 0 -13 -65 -17 -117 -7 -40 8 -56 8
-68 -2 -8 -7 -15 -8 -15 -2 0 13 -113 3 -122 -11 -5 -9 -10 -9 -20 1 -6 6 -25
12 -40 12 -15 0 -28 5 -28 11 0 5 5 7 10 4 6 -3 10 -2 10 3 0 6 -19 10 -42 10
-122 0 -178 4 -178 13 0 12 334 0 338 -12z m-487 -30 c15 -15 29 -18 66 -14
38 4 43 3 25 -5 -26 -11 -188 -17 -198 -7 -4 4 -1 7 8 7 8 0 15 7 15 16 0 11
-7 14 -22 10 -12 -3 -30 1 -41 9 -17 12 -10 13 55 8 52 -4 80 -12 92 -24z
m1206 14 c-11 -10 14 -33 37 -33 17 0 18 -2 6 -10 -9 -5 -19 -5 -27 1 -6 6
-22 10 -35 9 -13 -1 -32 -2 -42 -1 -18 1 -18 2 -1 21 10 11 29 20 43 20 14 0
22 -3 19 -7z m-1327 -43 c0 -5 -9 -8 -19 -7 -15 1 -17 4 -9 14 11 13 28 9 28
-7z m320 -36 c0 -8 -8 -14 -17 -14 -15 0 -16 2 -3 10 8 5 11 12 7 16 -3 4 -13
1 -21 -5 -8 -7 -29 -15 -47 -18 -28 -4 -30 -3 -18 10 37 36 99 37 99 1z m-380
6 c-30 -5 -84 -8 -120 -8 -62 1 -63 1 -20 8 25 4 79 7 120 7 l75 0 -55 -7z
m872 -10 c-5 -13 -4 -13 12 0 13 10 37 14 74 12 77 -4 79 -12 3 -12 -44 0 -60
-3 -55 -11 8 -14 -155 -4 -169 10 -5 5 -16 7 -25 4 -8 -4 -13 -2 -9 3 3 6 44
10 90 9 71 0 83 -2 79 -15z m-1065 4 c-3 -3 -12 -4 -19 -1 -8 3 -5 6 6 6 11 1
17 -2 13 -5z m1563 -9 c15 -18 10 -18 -24 -5 -16 6 -27 6 -31 -1 -7 -11 -25
-3 -25 12 0 15 66 10 80 -6z m-2523 -1 c-3 -3 -12 -4 -19 -1 -8 3 -5 6 6 6 11
1 17 -2 13 -5z m190 0 c-3 -3 -12 -4 -19 -1 -8 3 -5 6 6 6 11 1 17 -2 13 -5z
m1093 -4 c0 -5 -7 -7 -15 -4 -8 4 -15 1 -15 -6 0 -10 -3 -10 -15 0 -8 6 -20 8
-26 4 -8 -4 -9 -3 -5 4 9 14 76 16 76 2z m1125 -14 l40 -15 -55 -1 c-69 -2
-147 -8 -183 -15 -17 -3 -26 -1 -22 5 3 6 16 10 28 11 20 1 20 2 -3 9 -25 8
-25 8 5 10 30 2 30 2 5 11 -16 5 4 7 60 4 47 -2 103 -11 125 -19z m235 15 c0
-4 -11 -6 -25 -3 -14 2 -25 6 -25 8 0 2 11 4 25 4 14 0 25 -4 25 -9z m-1470
-11 c0 -5 -4 -10 -10 -10 -5 0 -10 5 -10 10 0 6 5 10 10 10 6 0 10 -4 10 -10z
m-1000 -10 c0 -5 -5 -10 -11 -10 -5 0 -7 5 -4 10 3 6 8 10 11 10 2 0 4 -4 4
-10z m2328 -8 c6 -18 -15 -14 -22 4 -4 10 -1 14 6 12 6 -2 14 -10 16 -16z
m-1281 -8 c-3 -3 -12 -4 -19 -1 -8 3 -5 6 6 6 11 1 17 -2 13 -5z m351 -12
c-16 -2 -28 -7 -28 -11 0 -4 -15 -8 -34 -8 -26 0 -31 3 -22 13 6 6 12 11 14 9
2 -2 15 0 30 4 15 4 36 5 47 2 17 -5 16 -6 -7 -9z m212 14 c0 -3 -4 -8 -10
-11 -5 -3 -10 -1 -10 4 0 6 5 11 10 11 6 0 10 -2 10 -4z m773 -3 c-7 -2 -21
-2 -30 0 -10 3 -4 5 12 5 17 0 24 -2 18 -5z m264 -9 c-3 -3 -12 -4 -19 -1 -8
3 -5 6 6 6 11 1 17 -2 13 -5z m506 -11 c-7 -2 -19 -2 -25 0 -7 3 -2 5 12 5 14
0 19 -2 13 -5z m-743 -27 c0 -2 -9 -6 -20 -9 -11 -3 -18 -1 -14 4 5 9 34 13
34 5z m737 -2 c-3 -3 -12 -4 -19 -1 -8 3 -5 6 6 6 11 1 17 -2 13 -5z m115 -23
c-10 -6 -4 -10 19 -15 18 -3 30 -9 27 -12 -3 -3 -26 0 -49 7 -37 10 -41 13
-24 20 27 10 43 11 27 0z m-1032 -21 c0 -5 -4 -10 -10 -10 -5 0 -10 5 -10 10
0 6 5 10 10 10 6 0 10 -4 10 -10z m1177 -33 c4 -7 0 -8 -11 -4 -10 4 -24 7
-32 7 -8 0 -14 4 -14 9 0 11 49 1 57 -12z m63 -19 c0 -5 6 -6 13 -2 9 5 9 4 1
-5 -13 -14 -69 3 -60 18 7 11 46 2 46 -11z m-175 -28 c-3 -5 -12 -10 -18 -10
-7 0 -6 4 3 10 19 12 23 12 15 0z m-778 -166 c-3 -3 -12 -4 -19 -1 -8 3 -5 6
6 6 11 1 17 -2 13 -5z m63 -4 c8 -5 11 -12 7 -16 -4 -4 -15 0 -24 9 -18 18 -8
23 17 7z m1650 -130 l-25 -19 25 -9 c25 -9 25 -10 -12 -25 -21 -9 -38 -23 -38
-31 0 -19 -4 -19 -90 -20 -58 -1 -65 -3 -65 -21 -1 -28 -47 -25 -120 9 -32 14
-68 26 -80 26 -21 0 -53 25 -43 35 4 4 79 22 198 47 25 5 80 10 123 12 43 2
80 6 82 7 2 2 18 5 37 6 l33 2 -25 -19z m-466 -109 c6 -9 -54 -24 -63 -16 -7
8 20 25 41 25 9 0 19 -4 22 -9z"/>
<path d="M2088 1013 c7 -3 16 -2 19 1 4 3 -2 6 -13 5 -11 0 -14 -3 -6 -6z"/>
<path d="M2475 779 c-11 -17 0 -20 21 -4 17 13 17 14 2 15 -9 0 -20 -5 -23
-11z"/>
<path d="M1351 5755 c-24 -6 -48 -18 -55 -26 -6 -8 -18 -18 -26 -21 -17 -7
-63 -94 -81 -155 -7 -27 -9 -71 -5 -125 8 -109 15 -137 37 -151 11 -7 19 -17
19 -22 0 -6 20 -21 45 -33 66 -32 181 -31 250 2 58 28 133 98 141 133 4 13 4
57 2 98 -7 110 -66 218 -147 267 -51 32 -127 46 -180 33z"/>
<path d="M3863 5632 c-18 -2 -33 -7 -33 -13 0 -5 -5 -9 -12 -9 -45 0 -261
-171 -264 -209 -1 -6 -2 -18 -2 -26 -1 -8 -12 -15 -23 -15 -18 0 -19 -3 -9
-15 9 -10 9 -22 2 -42 -6 -15 -11 -21 -11 -13 -1 13 -2 13 -11 0 -13 -19 -13
-67 0 -75 5 -3 7 -11 4 -18 -6 -17 20 -80 40 -97 9 -7 16 -19 16 -26 0 -8 5
-14 12 -14 6 0 9 -3 5 -6 -8 -8 62 -83 93 -99 14 -7 53 -19 87 -25 55 -11 69
-10 130 8 72 22 139 61 188 109 59 57 96 107 102 135 5 26 23 40 23 18 0 -5 6
-7 13 -4 9 3 12 18 10 44 -3 46 -47 167 -68 190 -8 9 -12 20 -8 25 5 4 0 5
-10 2 -15 -6 -17 -3 -12 14 5 15 4 19 -4 15 -6 -4 -12 0 -12 8 -3 30 -4 34
-13 43 -5 5 -6 3 -2 -4 11 -21 -9 -15 -29 7 -17 18 -17 20 -2 14 9 -3 17 -3
17 1 0 13 -45 44 -63 45 -10 0 -16 4 -13 9 9 14 -81 29 -141 23z"/>
<path d="M3013 5513 c-15 -6 -68 -49 -99 -82 -36 -36 -40 -82 -13 -136 15 -30
28 -44 37 -40 10 4 12 0 8 -10 -4 -10 -2 -14 5 -9 6 4 14 1 18 -5 14 -22 112
-18 165 8 l49 24 -6 57 c-11 121 -96 221 -164 193z"/>
<path d="M4521 5399 c-50 -30 -76 -112 -51 -160 16 -29 79 -25 135 8 52 32 61
50 45 97 -21 65 -75 88 -129 55z"/>
<path d="M1982 5118 c-29 -29 -2 -72 40 -66 17 2 24 11 26 32 5 41 -37 63 -66
34z"/>
<path d="M3211 4909 c-66 -13 -60 -17 21 -13 l73 3 -59 -9 c-88 -14 -188 -65
-241 -121 -25 -27 -45 -44 -45 -38 0 21 83 98 135 125 29 16 52 30 50 32 -2 2
-32 -11 -66 -29 -40 -21 -76 -51 -101 -82 -43 -55 -44 -59 -23 -77 19 -16 55
-7 107 26 22 14 64 33 92 41 57 17 218 22 238 6 7 -5 31 -15 53 -21 39 -11
149 -92 125 -92 -6 0 -8 -4 -5 -10 3 -5 1 -10 -5 -10 -6 0 -9 -4 -6 -9 3 -5
-22 6 -57 25 -184 99 -383 79 -490 -49 -69 -84 -75 -95 -25 -50 77 69 139 96
239 101 126 6 242 -31 315 -102 37 -36 37 -38 0 -141 -56 -155 -67 -180 -81
-191 -8 -6 -15 -23 -15 -38 0 -15 -4 -25 -9 -22 -5 3 -14 -8 -20 -24 -5 -17
-17 -30 -25 -30 -8 0 -22 -10 -32 -22 l-16 -23 5 25 c17 79 18 121 3 179 -52
204 -210 230 -305 50 -25 -47 -29 -59 -14 -46 24 21 39 22 51 1 24 -43 -27
-106 -55 -68 -7 10 -14 25 -14 33 -3 31 -17 -45 -18 -95 -2 -98 45 -196 111
-230 23 -12 47 -15 84 -11 50 5 52 4 50 -18 -2 -13 3 -37 10 -55 11 -24 19
-31 36 -28 14 2 22 -2 21 -9 -2 -7 4 -10 12 -7 8 4 15 10 15 15 0 6 9 5 20 -1
11 -6 26 -8 33 -4 6 4 0 -5 -15 -21 -16 -15 -28 -32 -28 -37 0 -6 -7 -7 -16
-4 -8 3 -12 2 -9 -4 4 -6 -1 -17 -9 -26 -9 -8 -16 -13 -16 -10 0 3 -8 -2 -18
-11 -11 -10 -17 -22 -14 -27 3 -5 0 -6 -6 -2 -6 3 -28 -3 -49 -14 -40 -21 -77
-20 -140 7 -18 7 -33 11 -33 8 0 -12 86 -47 129 -52 59 -7 97 11 218 104 48
36 136 98 197 138 118 77 194 143 220 193 54 104 -29 548 -125 668 -16 20 -29
33 -29 29 0 -4 -26 16 -57 46 -72 68 -113 93 -183 112 -77 21 -137 27 -189 16z
m139 -859 c0 -5 -2 -10 -4 -10 -3 0 -8 5 -11 10 -3 6 -1 10 4 10 6 0 11 -4 11
-10z"/>
<path d="M2305 4842 c35 -12 68 -35 115 -80 36 -36 44 -46 18 -24 -25 22 -70
53 -100 68 -89 46 -195 35 -263 -27 -11 -10 -24 -17 -30 -17 -10 1 -85 -139
-84 -157 0 -5 6 -1 12 9 28 45 102 117 141 136 30 14 62 20 110 20 75 0 117
-17 203 -81 29 -22 59 -39 68 -39 24 0 18 44 -12 82 -63 79 -142 129 -200 127
-23 0 -18 -3 22 -17z"/>
<path d="M116 4754 c-18 -17 -15 -42 11 -82 19 -30 53 -25 72 10 14 25 14 29
-5 55 -25 33 -55 40 -78 17z"/>
<path d="M3510 4706 c0 -2 8 -10 18 -17 15 -13 16 -12 3 4 -13 16 -21 21 -21
13z"/>
<path d="M2091 4649 c-33 -22 -64 -46 -68 -52 -4 -7 4 -4 17 5 69 49 105 62
170 62 74 0 115 -17 171 -71 26 -25 39 -31 44 -22 5 7 4 10 -2 6 -5 -3 -17 3
-26 14 -20 22 -22 33 -5 23 7 -4 8 -3 4 5 -4 6 -12 9 -17 6 -5 -4 -21 2 -37
13 -42 29 -108 52 -151 52 -29 0 -55 -11 -100 -41z"/>
<path d="M0 4605 c0 -26 4 -33 14 -29 21 8 28 34 15 50 -19 23 -29 16 -29 -21z"/>
<path d="M253 4532 c-34 -5 -28 -22 7 -22 17 0 30 4 30 9 0 14 -11 18 -37 13z"/>
<path d="M50 4500 c0 -5 9 -10 19 -10 11 0 23 5 26 10 4 6 -5 10 -19 10 -14 0
-26 -4 -26 -10z"/>
<path d="M2461 4459 c7 -29 6 -66 -2 -113 -6 -39 -12 -80 -14 -91 -4 -25 -42
-151 -57 -185 -13 -30 -27 -150 -18 -150 9 0 10 -28 3 -63 -2 -15 -9 -25 -14
-21 -5 3 -9 0 -9 -6 0 -5 -13 -24 -30 -42 -16 -17 -30 -35 -30 -40 0 -5 -4 -7
-9 -3 -5 3 -12 1 -16 -5 -4 -6 -12 -7 -18 -4 -7 4 -9 4 -5 -1 13 -14 -25 -34
-63 -35 -20 0 -61 9 -92 19 -32 11 -57 18 -57 15 0 -16 111 -54 158 -54 71 0
113 19 175 82 64 64 106 136 143 243 24 69 28 96 28 200 1 97 -3 133 -21 191
-12 39 -31 78 -42 88 -19 17 -19 17 -10 -25z"/>
<path d="M4306 4474 c-68 -68 10 -182 95 -138 50 25 54 90 10 135 -37 36 -70
37 -105 3z"/>
<path d="M2130 4458 c-19 -13 -47 -48 -63 -78 -26 -48 -27 -53 -8 -36 22 20
22 20 43 -1 20 -21 20 -23 4 -47 -19 -30 -50 -34 -65 -8 -8 12 -10 -3 -11 -61
0 -75 12 -122 54 -207 27 -56 105 -59 169 -7 41 34 69 125 70 224 0 69 -4 90
-27 137 -30 62 -76 106 -110 106 -13 0 -38 -10 -56 -22z m35 -35 c4 -17 2 -29
-4 -31 -6 -2 -9 -8 -5 -13 3 -5 3 -9 -1 -9 -3 0 -10 11 -15 25 -5 14 -17 25
-27 25 -17 1 -16 2 1 15 29 22 43 18 51 -12z"/>
<path d="M4907 4346 c-4 -10 -5 -21 -2 -24 9 -9 17 6 13 25 -3 17 -4 17 -11
-1z"/>
<path d="M1216 4198 c2 -13 2 -18 -2 -11 -6 12 -34 7 -34 -7 0 -11 39 -20 56
-13 18 7 18 21 0 39 -20 20 -25 18 -20 -8z"/>
<path d="M465 4172 c-3 -4 -48 -5 -99 -4 -111 3 -118 -2 -146 -105 -10 -37
-27 -93 -38 -123 -22 -62 -15 -90 21 -91 40 -1 71 -9 78 -21 8 -13 -11 -48
-26 -48 -5 0 -23 -11 -39 -23 -35 -28 -44 -90 -20 -135 7 -15 14 -35 14 -45 0
-19 -45 -66 -64 -68 -6 -1 0 -5 14 -9 32 -10 316 -12 523 -3 l157 6 0 244 c0
188 -3 243 -12 243 -9 0 -8 4 2 10 10 7 12 12 4 18 -17 11 -24 71 -7 65 14 -6
17 6 7 31 -3 9 -10 14 -15 11 -4 -3 -12 3 -18 13 -7 13 -30 22 -78 30 -71 12
-247 15 -258 4z"/>
<path d="M4115 3752 c-6 -5 -46 -21 -90 -37 -44 -15 -87 -33 -95 -40 -8 -7
-26 -15 -40 -18 -31 -7 -151 -50 -166 -59 -6 -4 -37 -17 -70 -29 -82 -30 -88
-36 -68 -67 20 -30 29 -24 -153 -103 -79 -34 -143 -66 -143 -71 0 -5 -4 -7 -9
-4 -4 3 -33 -6 -62 -21 -30 -15 -57 -26 -61 -25 -4 1 -24 -7 -43 -18 -20 -11
-49 -20 -64 -20 -16 0 -31 -4 -33 -10 -3 -9 -135 -37 -223 -47 -22 -3 -44 -9
-50 -13 -14 -10 -375 -6 -400 5 -14 5 -17 5 -10 -3 13 -13 235 -82 235 -73 0
4 28 2 63 -5 34 -8 80 -14 102 -15 22 0 58 -6 80 -13 38 -11 40 -14 47 -61 3
-28 7 -72 7 -99 l1 -49 -167 6 c-195 6 -257 19 -388 82 -107 52 -160 94 -181
143 -18 42 -26 122 -13 122 5 0 9 9 9 19 0 13 -22 31 -73 59 -145 80 -275 192
-340 293 -17 25 -17 26 10 38 16 7 52 22 81 33 28 11 52 24 52 30 0 5 -6 8
-12 5 -7 -2 -38 -10 -68 -18 -57 -14 -115 -44 -138 -72 -16 -19 -7 -57 13 -57
32 0 105 -126 105 -182 0 -10 -11 -30 -25 -44 -24 -24 -30 -44 -27 -96 2 -23
6 -26 29 -25 26 2 29 7 42 75 8 39 17 72 20 72 4 0 31 -53 62 -118 49 -100
136 -246 158 -262 4 -3 21 -27 39 -55 17 -27 46 -64 64 -82 18 -18 48 -47 67
-65 18 -18 44 -49 56 -69 50 -78 145 -174 251 -255 81 -61 102 -69 57 -21 -39
41 -53 68 -53 105 0 40 57 123 101 146 34 18 38 19 70 4 19 -9 53 -21 75 -27
23 -6 53 -20 68 -32 14 -11 31 -17 38 -13 29 18 158 -11 158 -36 0 -5 16 -18
36 -30 l36 -23 -41 -41 c-23 -23 -66 -55 -96 -71 -30 -15 -55 -32 -55 -37 0
-5 -4 -7 -9 -3 -5 3 -12 1 -15 -4 -4 -5 -32 -16 -64 -23 l-57 -13 58 -3 c148
-8 390 111 548 269 147 147 311 414 451 733 22 50 47 99 57 109 22 22 55 29
87 17 22 -9 24 -15 24 -72 0 -66 -11 -93 -88 -219 -26 -44 -31 -61 -26 -89 12
-71 53 -123 106 -135 15 -4 30 -11 33 -16 10 -15 106 -9 157 9 33 12 55 29 75
57 51 71 93 145 93 163 0 10 6 24 13 31 8 8 12 55 11 164 -1 153 -12 214 -46
252 -7 8 -29 37 -48 64 -19 28 -52 60 -72 73 -21 13 -38 26 -38 31 0 9 -14 9
-25 -1z m-1085 -708 c0 -7 14 -15 30 -19 35 -8 38 -21 8 -46 -20 -18 -20 -19
-2 -20 12 0 14 -2 5 -6 -10 -4 -10 -7 -2 -13 9 -5 7 -11 -5 -21 -15 -12 -17
-12 -9 0 5 9 4 12 -3 7 -6 -4 -8 -14 -5 -23 5 -13 1 -15 -20 -11 -15 3 -24 2
-22 -3 7 -10 -100 -23 -114 -14 -14 8 -14 113 0 153 11 32 12 32 75 30 43 -1
64 -6 64 -14z"/>
<path d="M4900 3479 c0 -5 5 -7 10 -4 6 3 10 8 10 11 0 2 -4 4 -10 4 -5 0 -10
-5 -10 -11z"/>
<path d="M4898 3438 c-10 -10 -18 -23 -18 -29 0 -5 -4 -7 -10 -4 -6 4 -8 -6
-6 -25 4 -34 16 -52 23 -32 3 6 9 10 14 6 12 -7 11 3 0 25 -7 12 -5 26 5 46
17 34 15 38 -8 13z"/>
<path d="M4913 3411 c-10 -15 -9 -22 1 -30 10 -8 13 -4 13 19 0 17 -1 30 -1
30 -1 0 -7 -9 -13 -19z"/>
<path d="M442 3367 c-6 -6 -14 -25 -17 -40 -8 -29 -25 -47 -25 -25 0 11 -15
13 -62 11 -95 -4 -258 -23 -300 -34 l-38 -10 0 -114 0 -115 103 0 c188 0 610
-40 630 -59 5 -5 3 -57 -3 -116 -7 -60 -9 -130 -6 -157 6 -40 4 -50 -14 -65
-21 -18 -27 -57 -10 -68 15 -9 12 -53 -6 -80 -14 -21 -14 -32 -4 -76 7 -28 10
-68 7 -90 -5 -37 -4 -39 23 -39 36 0 37 2 50 170 5 74 17 209 24 300 23 261
31 520 17 520 -7 0 -10 4 -7 9 9 13 -50 20 -134 15 -44 -2 -74 -8 -72 -14 3
-16 -25 -12 -42 6 -9 8 -16 21 -16 28 0 19 -44 56 -67 56 -11 0 -25 -6 -31
-13z"/>
<path d="M6247 3152 c-13 -8 -29 -23 -35 -33 -16 -26 -54 -170 -47 -178 4 -3
58 -8 121 -9 l114 -4 0 116 c0 85 -3 116 -12 118 -59 7 -120 2 -141 -10z"/>
<path d="M1257 3109 c-15 -22 -27 -44 -27 -48 0 -5 -9 -16 -21 -27 -24 -22
-69 -106 -69 -129 0 -9 11 -27 24 -42 23 -24 27 -25 94 -18 84 8 127 32 150
83 33 77 -2 178 -73 208 -47 19 -48 19 -78 -27z"/>
<path d="M1443 2738 c-26 -13 -38 -39 -22 -49 7 -4 26 -6 43 -5 24 2 30 7 28
22 -6 31 -24 43 -49 32z"/>
<path d="M0 2630 c0 -25 4 -30 23 -30 20 1 20 2 4 11 -14 8 -15 14 -7 24 8 9
7 14 -5 19 -11 4 -15 -2 -15 -24z"/>
<path d="M565 2640 c4 -6 1 -23 -6 -36 -11 -22 -10 -30 6 -60 18 -33 55 -48
55 -21 0 7 7 4 15 -7 8 -11 15 -15 15 -10 0 6 -3 14 -7 18 -4 4 -8 25 -9 48
-2 44 -15 62 -53 73 -17 5 -21 4 -16 -5z"/>
<path d="M483 2612 c-40 -32 -51 -135 -17 -163 10 -8 19 -4 39 17 24 26 26 33
20 84 -9 75 -15 83 -42 62z"/>
<path d="M4042 2590 c-39 -16 -141 -132 -172 -195 -41 -85 -53 -144 -48 -234
5 -88 32 -148 90 -196 63 -53 144 -71 188 -43 14 9 46 19 71 22 41 6 209 61
256 84 10 5 39 19 65 31 26 13 49 30 52 38 3 8 10 11 16 8 6 -4 10 19 10 62
-1 122 -72 249 -181 322 -95 63 -296 122 -347 101z"/>
<path d="M0 2525 c0 -65 10 -81 30 -46 15 29 12 77 -6 95 -8 9 -17 16 -20 16
-2 0 -4 -29 -4 -65z"/>
<path d="M193 2503 c-7 -3 -13 -16 -13 -29 0 -28 34 -34 44 -7 8 19 -13 43
-31 36z"/>
<path d="M560 2378 c-18 -19 -22 -20 -30 -8 -8 12 -10 10 -10 -7 0 -13 -4 -23
-10 -23 -6 0 -9 -5 -7 -12 1 -6 -9 -15 -23 -19 -16 -6 -6 -7 30 -3 109 10 120
16 100 63 -15 37 -23 38 -50 9z"/>
<path d="M374 2365 c-10 -8 -14 -14 -9 -15 15 0 40 18 34 24 -3 3 -14 -1 -25
-9z"/>
<path d="M117 2329 c-23 -13 -13 -29 19 -29 18 0 25 5 22 17 -4 21 -18 25 -41
12z"/>
<path d="M1607 1913 c-4 -7 7 -21 25 -34 29 -20 31 -20 15 -3 -9 12 -14 24
-10 29 5 4 3 5 -4 2 -6 -4 -13 -2 -15 5 -3 9 -6 9 -11 1z"/>
<path d="M3391 1847 c-72 -25 -103 -122 -59 -187 13 -19 33 -36 43 -38 11 -1
54 15 95 36 84 43 95 63 65 126 -28 58 -85 83 -144 63z"/>
<path d="M1731 1697 c2 -1 13 -9 24 -17 19 -14 19 -14 6 3 -7 9 -18 17 -24 17
-6 0 -8 -1 -6 -3z"/>
<path d="M2860 1585 c-43 -20 -118 -97 -137 -143 -29 -69 -32 -120 -12 -178
10 -29 19 -60 19 -69 0 -8 8 -15 18 -15 10 0 24 -6 31 -12 18 -19 201 -13 268
8 91 29 126 98 103 205 -33 156 -175 255 -290 204z"/>
<path d="M3394 1533 c-15 -16 -15 -17 4 -24 11 -4 23 -21 27 -38 8 -36 28 -40
48 -10 14 20 12 53 -4 74 -13 17 -57 16 -75 -2z"/>
<path d="M4515 1498 c-14 -21 -14 -24 2 -35 9 -7 13 -13 9 -13 -4 0 -1 -7 8
-15 28 -29 76 -12 76 27 0 24 -35 58 -59 58 -11 0 -27 -10 -36 -22z"/>
<path d="M176 1427 c3 -10 9 -15 12 -12 3 3 0 11 -7 18 -10 9 -11 8 -5 -6z"/>
<path d="M4380 1290 c-16 -11 -16 -11 41 -46 24 -15 44 -20 67 -17 37 6 41 24
10 53 -24 22 -91 28 -118 10z"/>
<path d="M3790 1163 c-33 -6 -50 -21 -50 -44 0 -22 34 -33 85 -26 46 6 51 11
39 45 -10 28 -27 34 -74 25z"/>
<path d="M5390 957 c0 -12 73 -47 98 -47 l27 0 -31 20 c-30 19 -94 38 -94 27z"/>
<path d="M4187 779 c-15 -9 -15 -12 -3 -24 8 -8 16 -19 18 -24 1 -5 17 -13 33
-17 30 -7 30 -7 12 14 -12 13 -15 22 -8 27 6 3 11 12 10 18 0 9 -2 9 -6 0 -2
-7 -11 -13 -19 -13 -9 0 -13 4 -9 9 8 15 -8 20 -28 10z"/>
<path d="M4050 769 c0 -5 5 -7 10 -4 6 3 10 8 10 11 0 2 -4 4 -10 4 -5 0 -10
-5 -10 -11z"/>
<path d="M4387 713 c-12 -12 -7 -25 7 -20 10 4 13 1 9 -9 -6 -15 12 -20 21 -5
7 11 -28 43 -37 34z"/>
<path d="M1806 618 c3 -4 28 -8 56 -8 28 0 49 2 46 5 -9 9 -107 12 -102 3z"/>
<path d="M1943 613 c15 -2 39 -2 55 0 15 2 2 4 -28 4 -30 0 -43 -2 -27 -4z"/>
<path d="M4110 616 c0 -2 13 -6 29 -8 17 -2 28 -1 25 4 -5 8 -54 12 -54 4z"/>
<path d="M1155 600 c-18 -8 -17 -9 8 -9 16 -1 26 3 22 9 -3 6 -7 10 -8 9 -1 0
-11 -4 -22 -9z"/>
<path d="M1675 550 c-5 -7 71 -18 185 -26 42 -3 60 -1 51 5 -8 5 -40 10 -70
10 -31 0 -80 5 -109 9 -29 5 -55 6 -57 2z"/>
<path d="M1935 530 c-3 -5 1 -10 10 -10 9 0 13 5 10 10 -3 6 -8 10 -10 10 -2
0 -7 -4 -10 -10z"/>
<path d="M390 506 c0 -2 9 -6 20 -9 11 -3 20 -1 20 4 0 5 -9 9 -20 9 -11 0
-20 -2 -20 -4z"/>
<path d="M440 500 c0 -9 120 -33 127 -26 7 7 -8 12 -74 24 -29 5 -53 6 -53 2z"/>
<path d="M3696 445 c-9 -25 -9 -25 27 -25 29 1 30 2 12 12 -11 6 -23 15 -26
20 -3 6 -9 2 -13 -7z"/>
<path d="M3057 216 c-16 -13 -16 -14 8 -20 14 -4 37 -3 51 0 l27 7 -24 13
c-30 17 -40 17 -62 0z"/>
<path d="M2668 193 c12 -2 30 -2 40 0 9 3 -1 5 -23 4 -22 0 -30 -2 -17 -4z"/>
<path d="M0 53 l0 -53 403 1 c221 1 389 4 372 6 -16 3 -33 9 -36 15 -3 5 -55
11 -115 12 -71 2 -125 8 -154 19 -32 12 -78 17 -160 17 -81 0 -121 4 -135 14
-11 7 -55 15 -97 18 l-78 5 0 -54z"/>
<path d="M2850 16 c0 -10 8 -16 22 -16 12 0 19 1 17 3 -2 1 -12 9 -21 16 -15
12 -18 11 -18 -3z"/>
</g>
</svg>
